<svg width="512" height="512" viewBox="0 0 512 512" fill="none" xmlns="http://www.w3.org/2000/svg">
  <rect width="512" height="512" rx="112" fill="url(#bg)"/>
  <circle cx="256" cy="256" r="154" fill="white" fill-opacity="0.16"/>
  <rect x="132" y="156" width="248" height="212" rx="36" fill="white"/>
  <rect x="162" y="197" width="188" height="28" rx="14" fill="#C7D2FE"/>
  <rect x="162" y="249" width="86" height="28" rx="14" fill="#A7F3D0"/>
  <rect x="264" y="249" width="86" height="28" rx="14" fill="#FECACA"/>
  <rect x="162" y="301" width="188" height="28" rx="14" fill="#DDD6FE"/>
  <circle cx="368" cy="360" r="74" fill="#10B981"/>
  <path d="M368 318V402" stroke="white" stroke-width="28" stroke-linecap="round"/>
  <path d="M333 353H403" stroke="white" stroke-width="28" stroke-linecap="round"/>
  <path d="M218 114C218 93.0132 235.013 76 256 76C276.987 76 294 93.0132 294 114V154H218V114Z" fill="white" fill-opacity="0.84"/>
  <defs>
    <linearGradient id="bg" x1="56" y1="36" x2="456" y2="476" gradientUnits="userSpaceOnUse">
      <stop stop-color="#4F46E5"/>
      <stop offset="1" stop-color="#7C3AED"/>
    </linearGradient>
  </defs>
</svg>
